<svg width="256" height="256" viewBox="0 0 256 256" fill="none" xmlns="http://www.w3.org/2000/svg">
<rect width="256" height="256" fill="#050505"/>
<path d="M128 20L208 50V120C208 170 175 215 128 236C81 215 48 170 48 120V50L128 20Z" fill="#ff0033" fill-opacity="0.1" stroke="#ff0033" stroke-width="8" stroke-linejoin="round"/>
<path d="M128 40L188 62.5V120C188 157.5 163.25 191.25 128 207C92.75 191.25 68 157.5 68 120V62.5L128 40Z" fill="none" stroke="#ff2e63" stroke-width="4" stroke-dasharray="10 6"/>
<rect x="120" y="80" width="16" height="60" fill="#e6e6e6"/>
<rect x="120" y="150" width="16" height="16" fill="#e6e6e6"/>
<line x1="128" y1="20" x2="128" y2="236" stroke="#ff0033" stroke-opacity="0.3" stroke-width="2"/>
<line x1="48" y1="128" x2="208" y2="128" stroke="#ff0033" stroke-opacity="0.3" stroke-width="2"/>
<circle cx="128" cy="128" r="40" stroke="#ff0033" stroke-opacity="0.2" stroke-width="2"/>
</svg>
